<svg xmlns="http://www.w3.org/2000/svg" viewBox="0 0 96 96">
  <rect width="96" height="96" rx="20" fill="#0D0E12"/>
  <g transform="translate(6 15) scale(0.636)">
    <path fill="none" stroke="#D9A63F" stroke-width="7" d="M18 6 H114 Q126 6 126 18 V33 A11 11 0 0 0 126 55 V70 Q126 82 114 82 H18 Q6 82 6 70 V55 A11 11 0 0 0 6 33 V18 Q6 6 18 6 Z"/>
    <rect x="35" y="36" width="7" height="16" rx="3.5" fill="#F4F4F2"/>
    <rect x="47" y="30" width="7" height="28" rx="3.5" fill="#D9A63F"/>
    <rect x="59" y="24" width="7" height="40" rx="3.5" fill="#F4F4F2"/>
    <rect x="71" y="18" width="7" height="52" rx="3.5" fill="#D9A63F"/>
    <rect x="83" y="27" width="7" height="34" rx="3.5" fill="#F4F4F2"/>
    <rect x="95" y="35" width="7" height="18" rx="3.5" fill="#D9A63F"/>
  </g>
</svg>
